<svg width="17" height="20" viewBox="0 0 17 20" fill="none" xmlns="http://www.w3.org/2000/svg">
<path d="M8.5 0C6.24648 0.00245748 4.08602 0.831051 2.49253 2.30402C0.899053 3.77699 0.00266759 5.77405 9.04313e-06 7.85714C-0.00269001 9.55945 0.598857 11.2156 1.71237 12.5714C1.71237 12.5714 1.94419 12.8536 1.98205 12.8943L8.5 20L15.021 12.8907C15.055 12.8529 15.2876 12.5714 15.2876 12.5714L15.2884 12.5693C16.4014 11.214 17.0026 9.55866 17 7.85714C16.9973 5.77405 16.1009 3.77699 14.5075 2.30402C12.914 0.831051 10.7535 0.00245748 8.5 0ZM8.5 10.7143C7.88868 10.7143 7.29108 10.5467 6.78278 10.2328C6.27449 9.91882 5.87832 9.4726 5.64438 8.95052C5.41043 8.42845 5.34922 7.85397 5.46849 7.29974C5.58775 6.74551 5.88213 6.23642 6.3144 5.83684C6.74667 5.43726 7.29742 5.16514 7.89699 5.0549C8.49657 4.94466 9.11805 5.00124 9.68284 5.21749C10.2476 5.43374 10.7304 5.79994 11.07 6.2698C11.4096 6.73965 11.5909 7.29205 11.5909 7.85714C11.5899 8.61461 11.2639 9.34079 10.6845 9.8764C10.105 10.412 9.31945 10.7133 8.5 10.7143Z" fill="#00153E"/>
</svg>
